<svg width="48" height="50" viewBox="0 0 48 50" fill="none" xmlns="http://www.w3.org/2000/svg">
<g id="Group">
<path id="Vector" d="M31.9688 6H16.0312C12.148 6 9 9.148 9 13.0312V28.9688C9 32.852 12.148 36 16.0312 36H31.9688C35.852 36 39 32.852 39 28.9688V13.0312C39 9.148 35.852 6 31.9688 6Z" fill="url(#paint0_linear_26_42)"/>
<g id="Group_2" filter="url(#filter0_d_26_42)">
<path id="Vector_2" d="M24.4652 28.9871C27.9429 28.9871 30.0386 27.2843 30.0386 24.4758C30.0386 22.3527 28.5434 20.8158 26.323 20.5724V20.484C27.9543 20.2186 29.2343 18.7037 29.2343 17.012C29.2343 14.6014 27.3313 13.0312 24.4312 13.0312H17.9062V28.9871H24.4652ZM20.4437 15.0547H23.8195C25.6547 15.0547 26.6968 15.873 26.6968 17.3548C26.6968 18.936 25.4848 19.8205 23.2871 19.8205H20.4437V15.0547ZM20.4437 26.9637V21.7114H23.7968C26.1984 21.7114 27.4445 22.596 27.4445 24.321C27.4445 26.0459 26.2324 26.9637 23.9441 26.9637H20.4437Z" fill="url(#paint1_linear_26_42)"/>
<path id="Vector_3" d="M24.4652 28.9871C27.9429 28.9871 30.0386 27.2843 30.0386 24.4758C30.0386 22.3527 28.5434 20.8158 26.323 20.5724V20.484C27.9543 20.2186 29.2343 18.7037 29.2343 17.012C29.2343 14.6014 27.3313 13.0312 24.4312 13.0312H17.9062V28.9871H24.4652ZM20.4437 15.0547H23.8195C25.6547 15.0547 26.6968 15.873 26.6968 17.3548C26.6968 18.936 25.4848 19.8205 23.2871 19.8205H20.4437V15.0547ZM20.4437 26.9637V21.7114H23.7968C26.1984 21.7114 27.4445 22.596 27.4445 24.321C27.4445 26.0459 26.2324 26.9637 23.9441 26.9637H20.4437Z" stroke="white" stroke-width="2"/>
</g>
</g>
<defs>
<filter id="filter0_d_26_42" x="0.90625" y="0.03125" width="46.1323" height="49.9559" filterUnits="userSpaceOnUse" color-interpolation-filters="sRGB">
<feFlood flood-opacity="0" result="BackgroundImageFix"/>
<feColorMatrix in="SourceAlpha" type="matrix" values="0 0 0 0 0 0 0 0 0 0 0 0 0 0 0 0 0 0 127 0" result="hardAlpha"/>
<feOffset dy="4"/>
<feGaussianBlur stdDeviation="8"/>
<feColorMatrix type="matrix" values="0 0 0 0 0 0 0 0 0 0 0 0 0 0 0 0 0 0 0.15 0"/>
<feBlend mode="normal" in2="BackgroundImageFix" result="effect1_dropShadow_26_42"/>
<feBlend mode="normal" in="SourceGraphic" in2="effect1_dropShadow_26_42" result="shape"/>
</filter>
<linearGradient id="paint0_linear_26_42" x1="9" y1="6" x2="39" y2="36" gradientUnits="userSpaceOnUse">
<stop stop-color="#9013FE"/>
<stop offset="1" stop-color="#6B11F4"/>
</linearGradient>
<linearGradient id="paint1_linear_26_42" x1="19.0539" y1="14.0815" x2="26.4071" y2="26.5177" gradientUnits="userSpaceOnUse">
<stop stop-color="white"/>
<stop offset="1" stop-color="#F1E5FC"/>
</linearGradient>
</defs>
</svg>
