<svg width="29" height="29" viewBox="0 0 29 29" fill="none" xmlns="http://www.w3.org/2000/svg">
<g id="ph:moon-fill">
<path id="Vector" d="M26.6823 17.016C25.9505 19.405 24.4838 21.5024 22.4909 23.0097C20.7413 24.3265 18.6592 25.1297 16.4784 25.329C14.2977 25.5283 12.1045 25.1158 10.1452 24.1379C8.1858 23.16 6.53777 21.6553 5.38606 19.7928C4.23434 17.9303 3.62453 15.7836 3.62506 13.5937C3.61718 11.0377 4.44811 8.54972 5.99037 6.51141C7.49762 4.51855 9.59501 3.05185 11.9841 2.32C12.1415 2.27152 12.3092 2.26687 12.4691 2.30657C12.629 2.34627 12.7751 2.42881 12.8916 2.5453C13.0081 2.6618 13.0906 2.80786 13.1303 2.96776C13.17 3.12766 13.1654 3.29535 13.1169 3.45281C12.5945 5.18084 12.5507 7.01822 12.9902 8.76917C13.4296 10.5201 14.3359 12.1191 15.6124 13.3956C16.8889 14.6721 18.4879 15.5784 20.2388 16.0178C21.9898 16.4573 23.8271 16.4135 25.5552 15.8911C25.7126 15.8426 25.8803 15.838 26.0402 15.8777C26.2001 15.9174 26.3462 15.9999 26.4627 16.1164C26.5792 16.2329 26.6617 16.3789 26.7014 16.5388C26.7411 16.6987 26.7365 16.8664 26.688 17.0239L26.6823 17.016Z" fill="black"/>
</g>
</svg>
